<svg width="49" height="36" viewBox="0 0 49 36" fill="none" xmlns="http://www.w3.org/2000/svg">
<path fill-rule="evenodd" clip-rule="evenodd" d="M6.59856 10.9503L0 4.8668V35.6899H0.82482C4.01357 35.6899 6.59856 33.1478 6.59856 30.0119V18.6561L11.5475 28.3897C13.1971 32.4453 16.2525 35.6899 20.8025 35.6899H38.5846C43.696 35.6899 47.8396 31.6612 47.8396 26.6916V24.7697C47.8396 20.1957 45.5171 15.9167 41.6336 13.3352L34.6416 8.6876L27.4012 13.4517C23.5998 15.9531 21.3224 20.1252 21.3224 24.588V26.6916H27.3538V24.588C27.3538 22.0714 28.638 19.7187 30.7817 18.3082L34.6244 15.7797L38.2296 18.1761C40.469 19.6646 41.8082 22.1321 41.8082 24.7697V26.6916C41.8082 28.4226 40.365 29.8258 38.5846 29.8258H20.8025C19.0221 29.8258 17.5788 28.4226 17.5788 26.6916V8.99829C17.5788 7.2673 19.0221 5.86406 20.8025 5.86406H41.8082L47.8396 10.2115V8.11133C47.8396 3.63157 44.1467 0 39.5914 0H20.8025C15.6911 0 11.5475 4.02867 11.5475 8.99829V15.4115L6.59856 10.9503Z" fill="black"/>
</svg>
